<?xml version="1.0" encoding="utf-8"?>
<!-- Generator: Adobe Illustrator 23.0.6, SVG Export Plug-In . SVG Version: 6.00 Build 0)  -->
<svg version="1.1" xmlns="http://www.w3.org/2000/svg" xmlns:xlink="http://www.w3.org/1999/xlink" x="0px" y="0px"
	 viewBox="0 0 1387.2 400.1" style="enable-background:new 0 0 1387.2 400.1;" xml:space="preserve">
<style type="text/css">
	.st0{display:none;}
	.st1{display:inline;}
	.st2{fill:#04AADA;}
	.st3{fill:#40535D;}
	.st4{fill:none;stroke:#596F7C;stroke-width:0.176;stroke-linecap:round;stroke-miterlimit:10;}
	.st5{fill:#05AADA;}
	.st6{fill:#40525C;}
	.st7{clip-path:url(#SVGID_2_);fill:#40525C;}
	.st8{clip-path:url(#SVGID_2_);fill:#05AADA;}
	.st9{clip-path:url(#SVGID_4_);fill:#05AADA;}
	.st10{clip-path:url(#SVGID_6_);fill:#05AADA;}
	.st11{clip-path:url(#SVGID_6_);fill:#40525C;}
	.st12{fill:none;stroke:#05AADA;stroke-width:0.353;stroke-linecap:round;stroke-miterlimit:10;}
	.st13{fill:none;stroke:#000000;stroke-width:0.25;stroke-miterlimit:10;}
	.st14{display:inline;fill:none;}
	.st15{display:inline;fill:none;stroke:#000000;stroke-width:0.25;stroke-miterlimit:10;}
</style>
<g id="Ruler_marks" class="st0">
</g>
<g id="Layer_1">
	<g>
		<path class="st2" d="M279,147.5c0-1.6,1.4-2.9,3-2.9h2.4c1.6,0,2.7,1.1,4,2.4l61.3,58.9h0.2v-56.7c0-1.6,1.3-3,3-3h19.2
			c1.6,0,3,1.4,3,3v107.4c0,1.9-1.4,2.9-3,2.9h-1.6c-1.6,0-2.7-0.5-4-1.8l-62.1-62.4h-0.2v59.5c0,1.6-1.3,3-3,3h-19
			c-1.6,0-3-1.4-3-3L279,147.5"/>
		<path class="st2" d="M394.4,149.3c0-1.6,1.3-3,3-3h66.1c1.8,0,3,1.4,3,3v17.4c0,1.6-1.3,3-3,3h-44.2v19.8h36.4c1.6,0,3,1.4,3,3
			v17.4c0,1.8-1.4,3-3,3h-36.4v21.6h44.2c1.8,0,3,1.4,3,3v17.4c0,1.6-1.3,3-3,3h-66.1c-1.8,0-3-1.4-3-3V149.3"/>
		<path class="st3" d="M546.1,148.9c0-1.6,1.4-3,3-3h19.2c1.6,0,3,1.4,3,3v105.7c0,1.6-1.4,3-3,3h-19.2c-1.6,0-3-1.4-3-3V148.9"/>
		<path class="st3" d="M591.6,148.9c0-1.6,1.3-3,2.9-3h39c30.8,0,56,25.1,56,55.7c0,31-25.2,56-56,56h-39c-1.6,0-2.9-1.4-2.9-3
			V148.9 M633.3,234c18,0,29.7-14.2,29.7-32.4c0-18-11.7-32.2-29.7-32.2h-16.8V234H633.3z"/>
		<path class="st3" d="M706.6,148.9c0-1.6,1.3-3,3-3h66.1c1.8,0,3,1.4,3,3v17.4c0,1.6-1.3,3-3,3h-44.2v19.8h36.4c1.6,0,3,1.4,3,3
			v17.4c0,1.8-1.4,3-3,3h-36.4v21.6h44.2c1.8,0,3,1.4,3,3v17.4c0,1.6-1.3,3-3,3h-66.1c-1.8,0-3-1.4-3-3V148.9"/>
		<path class="st3" d="M795.7,147.1c0-1.6,1.4-2.9,3-2.9h2.4c1.6,0,2.7,1.1,4,2.4l61.3,58.9h0.2v-56.7c0-1.6,1.3-3,3-3h19.2
			c1.6,0,3,1.4,3,3v107.4c0,1.9-1.4,2.9-3,2.9h-1.6c-1.6,0-2.7-0.5-4-1.8L821.1,195H821v59.5c0,1.6-1.3,3-3,3h-19c-1.6,0-3-1.4-3-3
			L795.7,147.1"/>
		<path class="st3" d="M938.5,169.3h-22.8c-1.8,0-3-1.4-3-3v-17.4c0-1.6,1.3-3,3-3h70.9c1.8,0,3,1.4,3,3v17.4c0,1.6-1.3,3-3,3h-22.8
			v85.3c0,1.6-1.4,3-3,3h-19.2c-1.6,0-3-1.4-3-3V169.3"/>
		<path class="st3" d="M1010.4,148.9c0-1.6,1.4-3,3-3h19.1c1.6,0,3,1.4,3,3v105.7c0,1.6-1.4,3-3,3h-19.1c-1.6,0-3-1.4-3-3V148.9"/>
		<path class="st3" d="M1081.2,169.3h-22.8c-1.8,0-3-1.4-3-3v-17.4c0-1.6,1.3-3,3-3h70.9c1.8,0,3,1.4,3,3v17.4c0,1.6-1.3,3-3,3
			h-22.8v85.3c0,1.6-1.4,3-3,3h-19.2c-1.6,0-3-1.4-3-3V169.3"/>
		<path class="st3" d="M1181.9,204.8l-35.3-53.3c-1.3-2.1,0-4.6,2.6-4.6h20.8c1.3,0,2.1,0.8,2.6,1.4l22.2,32.7l22.2-32.7
			c0.5-0.6,1.1-1.4,2.5-1.4h20.8c2.6,0,3.8,2.6,2.6,4.6l-35.8,53.2v50.9c0,1.6-1.4,3-3,3h-19c-1.8,0-3-1.4-3-3V204.8"/>
		<path class="st2" d="M150.6,286.5c-31.1-17.6-50.4-50.5-50.6-86.2l10-0.1c0.2,32.2,17.6,61.7,45.6,77.6L150.6,286.5"/>
		<path class="st2" d="M250.6,285.7c-30.8,18.1-68.9,18.4-100,0.7l4.9-8.7c28,15.9,62.3,15.6,90-0.7L250.6,285.7"/>
		<path class="st2" d="M100,200.2c-0.3-35.7,18.6-68.9,49.4-87l5.1,8.6c-27.7,16.3-44.7,46.1-44.4,78.3L100,200.2"/>
		<path class="st2" d="M149.4,113.2c30.8-18.1,68.9-18.4,100-0.7l-4.9,8.7c-28-15.9-62.3-15.6-90,0.7L149.4,113.2"/>
		<path class="st2" d="M200,119.5c28.6,0,55,15.2,69.3,40l-8.7,5c-12.5-21.7-35.6-35-60.6-35V119.5"/>
		<path class="st2" d="M269.3,239.5c-14.3,24.8-40.7,40-69.3,40v-10c25,0,48.1-13.3,60.6-35L269.3,239.5"/>
		<path class="st2" d="M200,279.5c-28.6,0-55-15.2-69.3-40l8.7-5c12.5,21.7,35.6,35,60.6,35V279.5"/>
		<path class="st2" d="M130.7,239.5c-14.3-24.8-14.3-55.2,0-80l8.7,5c-12.5,21.7-12.5,48.3,0,70L130.7,239.5"/>
		<path class="st2" d="M200,139.5c21.4,0,41.2,11.4,52,30c10.7,18.6,10.7,41.4,0,60c-10.7,18.6-30.5,30-52,30
			c-21.4,0-41.2-11.4-52-30c-10.7-18.6-10.7-41.4,0-60C158.8,150.9,178.6,139.5,200,139.5 M169.7,182c-6.3,10.8-6.3,24.2,0,35
			c6.3,10.8,17.8,17.5,30.3,17.5c12.5,0,24.1-6.7,30.3-17.5c6.3-10.8,6.3-24.2,0-35c-6.3-10.8-17.8-17.5-30.3-17.5
			C187.5,164.5,175.9,171.2,169.7,182z"/>
	</g>
	<g>
		<path class="st3" d="M1259.2,149.9h-3.9c-0.3,0-0.5-0.2-0.5-0.5v-2.1c0-0.3,0.2-0.5,0.5-0.5h11.2c0.3,0,0.5,0.2,0.5,0.5v2.1
			c0,0.3-0.2,0.5-0.5,0.5h-3.9v14.6c0,0.3-0.2,0.5-0.5,0.5h-2.4c-0.3,0-0.5-0.2-0.5-0.5V149.9z"/>
		<path class="st3" d="M1271.1,147.2c0-0.2,0.2-0.4,0.5-0.4h0.4c0.2,0,0.4,0.1,0.4,0.3l5.6,12.1c0.1,0,0.1,0,0.1,0l5.6-12.1
			c0.1-0.2,0.2-0.3,0.4-0.3h0.4c0.3,0,0.4,0.2,0.5,0.4l3,17.2c0.1,0.4-0.1,0.6-0.5,0.6h-2.3c-0.2,0-0.4-0.2-0.5-0.4l-1.5-9.7
			c0,0-0.1,0-0.1,0l-4.5,10c-0.1,0.2-0.2,0.3-0.4,0.3h-0.5c-0.2,0-0.4-0.1-0.4-0.3l-4.5-10c0,0-0.1,0-0.1,0l-1.5,9.7
			c0,0.2-0.2,0.4-0.5,0.4h-2.3c-0.3,0-0.5-0.2-0.5-0.6L1271.1,147.2z"/>
	</g>
</g>
<g id="Layer_2">
</g>
<g id="Guides" class="st0">
	<g class="st1">
		<line class="st13" x1="0" y1="199.5" x2="1387.2" y2="199.5"/>
	</g>
	<g class="st1">
		<line class="st13" x1="0" y1="99.5" x2="1387.2" y2="99.5"/>
	</g>
	<g class="st1">
		<line class="st13" x1="0" y1="299.5" x2="1387.2" y2="299.5"/>
	</g>
	<line class="st15" x1="100" y1="0" x2="100" y2="400.1"/>
	<line class="st15" x1="1288.1" y1="0" x2="1288.1" y2="400.1"/>
</g>
</svg>
